<svg xmlns="http://www.w3.org/2000/svg"  viewBox="0 0 128 128" width="128px" height="128px"><path fill="#fff" d="M94,124H34c-11.05,0-20-8.95-20-20V24c0-11.05,8.95-20,20-20h60c11.05,0,20,8.95,20,20v80 C114,115.05,105.05,124,94,124z"/><path fill="#444b54" d="M94,127H34c-12.68,0-23-10.32-23-23V24C11,11.32,21.32,1,34,1h60c12.68,0,23,10.32,23,23v80 C117,116.68,106.68,127,94,127z M34,7c-9.37,0-17,7.63-17,17v80c0,9.37,7.63,17,17,17h60c9.37,0,17-7.63,17-17V24 c0-9.37-7.63-17-17-17H34z"/><path fill="#71c2ff" d="M94,57H34c-1.66,0-3-1.34-3-3s1.34-3,3-3h60c1.66,0,3,1.34,3,3S95.66,57,94,57z"/><path fill="#71c2ff" d="M94,77H34c-1.66,0-3-1.34-3-3s1.34-3,3-3h60c1.66,0,3,1.34,3,3S95.66,77,94,77z"/><path fill="#71c2ff" d="M64,97H34c-1.66,0-3-1.34-3-3s1.34-3,3-3h30c1.66,0,3,1.34,3,3S65.66,97,64,97z"/></svg>